<svg id="Layer_1" data-name="Layer 1" xmlns="http://www.w3.org/2000/svg" viewBox="0 0 343 313"><defs><style>.cls-1,.cls-5{fill:none;}.cls-1,.cls-2,.cls-3,.cls-4{stroke:#000;stroke-width:3px;}.cls-2{fill:purple;}.cls-3{fill:blue;}.cls-4{fill:gray;}.cls-5{stroke:red;stroke-width:5px;}</style></defs><title>svgtest</title><polyline class="cls-1" points="6.5 6.5 126.5 6.5 126.5 96.5 336.5 96.5 336.5 156.5 96.5 156.5 96.5 186.5 66.5 186.5 66.5 246.5 96.5 246.5 96.5 306.5 6.5 306.5 6.5 6.5"/><rect id="Door_3-4" data-name="Door 3-4" class="cls-2" x="11.5" y="301.5" width="50" height="10"/><rect id="Door_3-5" data-name="Door 3-5" class="cls-2" x="331.5" y="101.5" width="10" height="50"/><rect id="Toilet_Disabled_3-2" data-name="Toilet Disabled 3-2" class="cls-3" x="71.5" y="181.5" width="20" height="10"/><rect id="Toilet_Women_3-2" data-name="Toilet Women 3-2" class="cls-3" x="91.5" y="161.5" width="10" height="20"/><rect id="Room_9314" data-name="Room 9314" class="cls-3" x="91.5" y="261.5" width="10" height="20"/><rect id="Room_9315" data-name="Room 9315" class="cls-3" x="1.5" y="226.5" width="10" height="20"/><rect id="Room_9316" data-name="Room 9316" class="cls-3" x="61.5" y="206.5" width="10" height="20"/><rect id="Room_9318" data-name="Room 9318" class="cls-3" x="31.5" y="1.5" width="20" height="10"/><rect id="Room_9319" data-name="Room 9319" class="cls-3" x="146.5" y="91.5" width="20" height="10"/><rect id="Room_9320" data-name="Room 9320" class="cls-3" x="186.5" y="151.5" width="20" height="10"/><rect id="Room_9321" data-name="Room 9321" class="cls-3" x="216.5" y="91.5" width="20" height="10"/><rect id="Room_9322" data-name="Room 9322" class="cls-3" x="246.5" y="151.5" width="20" height="10"/><rect id="Room_9322-2" data-name="Room 9322" class="cls-3" x="286.5" y="151.5" width="20" height="10"/><rect class="cls-4" x="1.5" y="46.5" width="10" height="20"/><line id="Door_3-5_TO_Node_9314" data-name="Door 3-5 TO Node 9314" class="cls-5" x1="36.5" y1="311.5" x2="36.5" y2="271.5"/><line id="Node_9314_TO_Room_9314" data-name="Node 9314 TO Room 9314" class="cls-5" x1="36.5" y1="271.5" x2="86.5" y2="271.5"/><line id="Node_9314_TO_Node_9315" data-name="Node 9314 TO Node 9315" class="cls-5" x1="36.5" y1="271.5" x2="36.5" y2="236.5"/><line id="Node_9315_TO_Room_9315" data-name="Node 9315 TO Room 9315" class="cls-5" x1="36.5" y1="236.5" x2="16.5" y2="236.5"/><line id="Node_9315_TO_Node_9316" data-name="Node 9315 TO Node 9316" class="cls-5" x1="36.5" y1="236.5" x2="36.5" y2="216.5"/><line id="Node_9316_TO_Room_9316" data-name="Node 9316 TO Room 9316" class="cls-5" x1="36.5" y1="216.5" x2="56.5" y2="216.5"/><line id="Node_9316_TO_Intersection_3-1" data-name="Node 9316 TO Intersection 3-1" class="cls-5" x1="36.5" y1="216.5" x2="36.5" y2="121.5"/><line id="Intersection_3-1_TO_Node_9318" data-name="Intersection 3-1 TO Node 9318" class="cls-5" x1="36.5" y1="121.5" x2="41.5" y2="16.5"/><line id="Intersection_3-1_TO_Toilet_Women_3-2" data-name="Intersection 3-1 TO Toilet Women 3-2" class="cls-5" x1="36.5" y1="121.5" x2="81.5" y2="171.5"/><line id="Toilet_Women_3-2_TO_Toilet_Disabled_3-2" data-name="Toilet Women 3-2 TO Toilet Disabled 3-2" class="cls-5" x1="81.5" y1="171.5" x2="81.5" y2="176.5"/><line id="Intersection_3-1_TO_Node_9319" data-name="Intersection 3-1 TO Node 9319" class="cls-5" x1="36.5" y1="121.5" x2="156.5" y2="126.5"/><line id="Node_9319_TO_Room_9319" data-name="Node 9319 TO Room 9319" class="cls-5" x1="156.5" y1="126.5" x2="156.5" y2="106.5"/><line id="Intersection_3-1_TO_Toilet_Women_3-2-2" data-name="Intersection 3-1 TO Toilet Women 3-2" class="cls-5" x1="156.5" y1="126.5" x2="156.5" y2="106.5"/><line id="Node_9319_TO_Node_9320" data-name="Node 9319 TO Node 9320" class="cls-5" x1="156.5" y1="126.5" x2="196.5" y2="126.5"/><line id="Node_9320_TO_Room_9320" data-name="Node 9320 TO Room 9320" class="cls-5" x1="196.5" y1="126.5" x2="196.5" y2="146.5"/><line id="Node_9320_TO_Node_9321" data-name="Node 9320 TO Node 9321" class="cls-5" x1="196.5" y1="126.5" x2="226.5" y2="126.5"/><line id="Node_9321_TO_Room_9321" data-name="Node 9321 TO Room 9321" class="cls-5" x1="226.5" y1="126.5" x2="226.5" y2="106.5"/><line id="Node_9321_TO_Node_9322" data-name="Node 9321 TO Node 9322" class="cls-5" x1="226.5" y1="126.5" x2="256.5" y2="126.5"/><line id="Node_9322_TO_Room_9322" data-name="Node 9322 TO Room 9322" class="cls-5" x1="256.5" y1="126.5" x2="256.5" y2="146.5"/><line id="Node_9322_TO_Node_9324" data-name="Node 9322 TO Node 9324" class="cls-5" x1="256.5" y1="126.5" x2="296.5" y2="126.5"/><line id="Node_9324_TO_Room_9324" data-name="Node 9324 TO Room 9324" class="cls-5" x1="296.5" y1="126.5" x2="296.5" y2="146.5"/><line id="Node_9324_TO_Door_3-4" data-name="Node 9324 TO Door 3-4" class="cls-5" x1="296.5" y1="126.5" x2="326.5" y2="126.5"/></svg>